<svg width="55" height="51" viewBox="0 0 55 51" fill="none" xmlns="http://www.w3.org/2000/svg">
<path d="M27.5 50.3536C42.6878 50.3536 55 39.0816 55 25.1768C55 11.272 42.6878 0 27.5 0C12.3122 0 0 11.272 0 25.1768C0 39.0816 12.3122 50.3536 27.5 50.3536Z" fill="#204F38"/>
<path d="M44.0001 17.2743H42.7311L35.7841 10.9142C35.2991 10.5403 34.6789 10.3462 34.0454 10.3699C33.4119 10.3937 32.8111 10.6336 32.3612 11.0426C31.9112 11.4515 31.6448 11.9998 31.6142 12.5796C31.5837 13.1594 31.7913 13.7286 32.1961 14.1753L35.5811 17.2743H20.5081L23.8931 14.1753C24.1645 13.9682 24.3857 13.7115 24.5425 13.4216C24.6992 13.1317 24.7882 12.815 24.8036 12.4919C24.819 12.1687 24.7606 11.8462 24.632 11.5449C24.5034 11.2436 24.3075 10.9702 24.0569 10.7422C23.8062 10.5142 23.5064 10.3366 23.1765 10.2208C22.8465 10.1051 22.4939 10.0536 22.141 10.0698C21.7881 10.086 21.4428 10.1695 21.1272 10.3149C20.8116 10.4603 20.5326 10.6644 20.3081 10.9142L13.3361 17.2743H9.30811V18.8234H11.0681L12.5681 35.2854C12.6212 35.8679 12.9121 36.4107 13.3829 36.8055C13.8536 37.2004 14.4697 37.4183 15.1081 37.4158H30.4621V35.8667H15.0961C14.883 35.8674 14.6775 35.7944 14.5207 35.6623C14.3639 35.5303 14.2672 35.3489 14.2501 35.1545L12.7691 18.8243H43.0781L42.4601 25.6102L44.1521 25.7338L44.7781 18.8234H46.5381V17.2743H44.0001ZM33.3901 13.1069C33.3056 13.0361 33.2376 12.9503 33.1903 12.8547C33.1431 12.7591 33.1175 12.6558 33.1151 12.5509C33.1127 12.446 33.1336 12.3417 33.1766 12.2445C33.2195 12.1472 33.2835 12.0589 33.3648 11.9849C33.446 11.9109 33.5429 11.8528 33.6494 11.8141C33.7559 11.7754 33.8698 11.7569 33.9844 11.7597C34.0989 11.7624 34.2117 11.7865 34.3158 11.8303C34.4199 11.8741 34.5132 11.9369 34.5901 12.0147L40.3351 17.2743H37.9421L33.3901 13.1069ZM21.4761 12.0147C21.552 11.9338 21.6453 11.8681 21.7503 11.8218C21.8552 11.7754 21.9694 11.7494 22.0858 11.7454C22.2022 11.7414 22.3183 11.7594 22.4267 11.7983C22.5352 11.8373 22.6337 11.8963 22.716 11.9717C22.7984 12.0471 22.8629 12.1373 22.9054 12.2366C22.948 12.3358 22.9676 12.4421 22.9632 12.5487C22.9588 12.6552 22.9304 12.7598 22.8798 12.8559C22.8292 12.9519 22.7575 13.0374 22.6691 13.1069L18.1171 17.2743H15.7301L21.4761 12.0147ZM38.9231 25.796C37.417 25.796 35.9447 26.2049 34.6924 26.9709C33.4402 27.737 32.4641 28.8258 31.8878 30.0997C31.3114 31.3737 31.1606 32.7754 31.4544 34.1278C31.7483 35.4802 32.4735 36.7224 33.5385 37.6974C34.6035 38.6724 35.9603 39.3364 37.4375 39.6054C38.9147 39.8744 40.4458 39.7364 41.8372 39.2087C43.2287 38.681 44.418 37.7874 45.2547 36.641C46.0915 35.4945 46.5381 34.1466 46.5381 32.7677C46.5381 30.9187 45.7358 29.1454 44.3077 27.838C42.8796 26.5305 40.9427 25.796 38.9231 25.796ZM38.9231 38.1903C37.7516 38.1903 36.6065 37.8723 35.6325 37.2764C34.6584 36.6806 33.8993 35.8337 33.451 34.8428C33.0027 33.852 32.8854 32.7617 33.1139 31.7098C33.3425 30.6579 33.9066 29.6917 34.7349 28.9333C35.5633 28.1749 36.6186 27.6585 37.7676 27.4493C38.9165 27.24 40.1075 27.3474 41.1897 27.7578C42.272 28.1683 43.1971 28.8633 43.8479 29.755C44.4987 30.6468 44.8461 31.6952 44.8461 32.7677C44.8461 34.2059 44.2221 35.5851 43.1113 36.6021C42.0005 37.619 40.494 38.1903 38.9231 38.1903ZM39.7691 31.9932H43.1541V33.5422H39.7701V36.6413H38.0771V33.5431H34.6931V31.9932H38.0781V28.895H39.7701L39.7691 31.9932ZM22.0001 21.9224C21.7757 21.9224 21.5605 22.004 21.4019 22.1493C21.2432 22.2945 21.1541 22.4915 21.1541 22.697V31.9932C21.1541 32.1986 21.2432 32.3956 21.4019 32.5408C21.5605 32.6861 21.7757 32.7677 22.0001 32.7677H25.3851C25.6095 32.7677 25.8247 32.6861 25.9833 32.5408C26.142 32.3956 26.2311 32.1986 26.2311 31.9932V22.697C26.2311 22.4915 26.142 22.2945 25.9833 22.1493C25.8247 22.004 25.6095 21.9224 25.3851 21.9224H22.0001ZM24.5391 31.2186H22.8461V23.4724H24.5381L24.5391 31.2186ZM33.0011 25.796V23.4724H31.3081V28.895H29.6161V22.697C29.6161 22.4915 29.7052 22.2945 29.8639 22.1493C30.0225 22.004 30.2377 21.9224 30.4621 21.9224H33.8471C34.0715 21.9224 34.2867 22.004 34.4453 22.1493C34.604 22.2945 34.6931 22.4915 34.6931 22.697V25.796H33.0011Z" fill="white"/>
</svg>
