<svg width="14" height="22" viewBox="0 0 14 22" fill="none" xmlns="http://www.w3.org/2000/svg">
<path d="M4.31923 11.0344L13.2562 2.85882C13.5724 2.56854 13.7496 2.17518 13.7489 1.76526C13.7483 1.35534 13.5698 0.962449 13.2527 0.673018C12.9357 0.383587 12.506 0.221325 12.0583 0.221925C11.6105 0.222526 11.1814 0.385942 10.8652 0.676223L0.740232 9.9358C0.434315 10.217 0.258523 10.5952 0.249397 10.992C0.240272 11.3888 0.398515 11.7735 0.691232 12.0662L10.8582 21.3981C11.1744 21.6884 11.6035 21.8518 12.0513 21.8524C12.499 21.853 12.9287 21.6908 13.2457 21.4013C13.5628 21.1119 13.7413 20.719 13.7419 20.3091C13.7426 19.8992 13.5654 19.5058 13.2492 19.2155L4.31923 11.0344Z" fill="black"/>
</svg>
