<svg width="30" height="29" viewBox="0 0 30 29" fill="none" xmlns="http://www.w3.org/2000/svg">
<path d="M25.6522 10.9477H4.34944C3.9184 10.9486 3.49312 11.0467 3.10524 11.2347C2.71736 11.4227 2.37687 11.6957 2.10912 12.0335C1.84315 12.3709 1.65727 12.7642 1.5655 13.1839C1.47372 13.6036 1.47845 14.0386 1.57933 14.4562L3.86343 23.8084C4.19354 25.0137 4.91168 26.0765 5.90672 26.8324C6.90209 27.5899 8.12077 28 9.37447 28H20.6242C21.8779 28 23.0966 27.5899 24.092 26.8324C25.087 26.0765 25.8052 25.0137 26.1353 23.8084L28.4194 14.4577C28.5731 13.8273 28.5057 13.1632 28.2283 12.5766C27.9509 11.9899 27.4805 11.5164 26.8957 11.2352C26.5072 11.0467 26.0811 10.9484 25.6493 10.9477M9.28982 16.6308V22.3154M15.0008 16.6308V22.3154M20.7118 16.6308V22.3154M24.9954 10.9477C24.9949 9.64007 24.736 8.34545 24.2336 7.13822C23.7311 5.93099 22.9951 4.83495 22.0677 3.91308C20.1896 2.04624 17.6489 0.99889 15.0008 1C12.3528 0.99889 9.81197 2.04624 7.93395 3.91308C7.00683 4.83507 6.27104 5.93116 5.76885 7.13839C5.26666 8.34561 5.00798 9.64017 5.00767 10.9477" stroke="white" stroke-width="1.5" stroke-linecap="round" stroke-linejoin="round"/>
</svg>
