<svg width="28" height="28" viewBox="0 0 28 28" fill="none" xmlns="http://www.w3.org/2000/svg">
<path d="M20.0745 0.500398C18.9192 0.510022 17.7792 0.789474 16.7313 1.31992C15.6835 1.85037 14.7521 2.61949 14 3.57544C13.2478 2.61937 12.3163 1.85018 11.2683 1.31973C10.2202 0.789277 9.08007 0.509888 7.9246 0.500398C6.94696 0.489906 5.97722 0.692055 5.07212 1.09502C4.16702 1.49798 3.34475 2.09366 2.65341 2.8472C1.96208 3.60074 1.41558 4.497 1.04589 5.48354C0.676191 6.47009 0.490731 7.52709 0.500356 8.59271C0.500356 14.1549 5.0897 18.6871 12.0423 25.5727L14 27.5L15.9577 25.5578C22.9094 18.6861 27.4996 14.1549 27.4996 8.59271C27.5093 7.52701 27.3238 6.46993 26.954 5.48332C26.5843 4.49672 26.0377 3.60041 25.3463 2.84686C24.6549 2.09331 23.8325 1.49765 22.9273 1.09474C22.0221 0.691837 21.0523 0.489781 20.0745 0.500398ZM14.1346 23.3809L14 23.5277L13.8654 23.3809C7.43926 17.0393 3.20063 12.8454 3.20063 8.59271C3.18534 7.91185 3.29711 7.23471 3.52914 6.60235C3.76118 5.96999 4.10864 5.3956 4.55047 4.91402C4.99229 4.43244 5.51926 4.0537 6.09942 3.80079C6.67957 3.54788 7.30081 3.42606 7.92546 3.44272C8.95146 3.44818 9.95375 3.77954 10.8097 4.39624C11.6656 5.01294 12.338 5.88823 12.7446 6.91499H15.2691C15.671 5.88834 16.3399 5.01244 17.1933 4.3954C18.0466 3.77835 19.0471 3.44716 20.0711 3.44272C20.6958 3.42606 21.317 3.54788 21.8972 3.80079C22.4773 4.0537 23.0043 4.43244 23.4461 4.91402C23.8879 5.3956 24.2354 5.96999 24.4674 6.60235C24.6995 7.23471 24.8112 7.91185 24.7959 8.59271C24.7994 12.8454 20.5599 17.0393 14.1346 23.3809Z" fill="white"/>
</svg>
