<svg width="28" height="28" viewBox="0 0 28 28" fill="none" xmlns="http://www.w3.org/2000/svg">
<path d="M3.75764 22.7228L4.6807 21.5096C4.86443 21.2757 4.96047 20.9688 4.94817 20.6549V20.4554C4.95849 20.3629 4.95012 20.2689 4.9237 20.1806C4.89728 20.0924 4.85352 20.0122 4.79578 19.9462C4.73803 19.8803 4.66782 19.8303 4.59054 19.8001C4.51327 19.77 4.43097 19.7604 4.34995 19.7722H1.34366C1.23177 19.7722 1.12446 19.823 1.04535 19.9133C0.96623 20.0037 0.921783 20.1262 0.921783 20.254V21.2176C0.921783 21.3454 0.96623 21.4679 1.04535 21.5583C1.12446 21.6487 1.23177 21.6994 1.34366 21.6994H2.54769C2.34298 21.9347 2.14921 22.182 1.96719 22.4404L1.67104 22.8625C1.56951 22.977 1.50098 23.1241 1.4746 23.2842C1.44822 23.4444 1.46523 23.6099 1.52338 23.7587L1.57907 23.8753C1.62766 24.0233 1.71683 24.1494 1.8333 24.2348C1.94977 24.3203 2.0873 24.3604 2.22538 24.3493H2.47851C3.02357 24.3493 3.32226 24.4968 3.32226 24.8967C3.32226 25.1858 3.10035 25.392 2.56288 25.392C2.2829 25.3894 2.00595 25.3256 1.74697 25.2041C1.40441 24.9699 1.12766 24.993 0.924314 25.392L0.629844 25.9528C0.578307 26.0241 0.540726 26.1072 0.519622 26.1965C0.498518 26.2858 0.49438 26.3792 0.507486 26.4705C0.520591 26.5617 0.550637 26.6487 0.595607 26.7257C0.640577 26.8026 0.699431 26.8676 0.76822 26.9164C1.36189 27.3036 2.03628 27.5001 2.71982 27.4849C3.04471 27.5247 3.37329 27.4854 3.6839 27.3696C3.9945 27.2537 4.28006 27.0639 4.52174 26.8128C4.76342 26.5617 4.95571 26.2548 5.08594 25.9126C5.21617 25.5703 5.28137 25.2004 5.27724 24.8273C5.27167 24.3313 5.11802 23.8524 4.84169 23.4697C4.56536 23.087 4.18292 22.8235 3.75764 22.7228ZM26.6562 12.0633H9.78119C9.55741 12.0633 9.3428 12.1648 9.18457 12.3456C9.02633 12.5263 8.93744 12.7714 8.93744 13.0269V14.9542C8.93744 15.2097 9.02633 15.4548 9.18457 15.6355C9.3428 15.8162 9.55741 15.9178 9.78119 15.9178H26.6562C26.88 15.9178 27.0946 15.8162 27.2529 15.6355C27.4111 15.4548 27.5 15.2097 27.5 14.9542V13.0269C27.5 12.7714 27.4111 12.5263 27.2529 12.3456C27.0946 12.1648 26.88 12.0633 26.6562 12.0633ZM26.6562 2.42722H9.78119C9.55741 2.42722 9.3428 2.52874 9.18457 2.70946C9.02633 2.89017 8.93744 3.13526 8.93744 3.39083V5.31805C8.93744 5.57362 9.02633 5.81871 9.18457 5.99943C9.3428 6.18014 9.55741 6.28166 9.78119 6.28166H26.6562C26.88 6.28166 27.0946 6.18014 27.2529 5.99943C27.4111 5.81871 27.5 5.57362 27.5 5.31805V3.39083C27.5 3.13526 27.4111 2.89017 27.2529 2.70946C27.0946 2.52874 26.88 2.42722 26.6562 2.42722ZM26.6562 21.6994H9.78119C9.55741 21.6994 9.3428 21.8009 9.18457 21.9817C9.02633 22.1624 8.93744 22.4075 8.93744 22.663V24.5903C8.93744 24.8458 9.02633 25.0909 9.18457 25.2716C9.3428 25.4523 9.55741 25.5539 9.78119 25.5539H26.6562C26.88 25.5539 27.0946 25.4523 27.2529 25.2716C27.4111 25.0909 27.5 24.8458 27.5 24.5903V22.663C27.5 22.4075 27.4111 22.1624 27.2529 21.9817C27.0946 21.8009 26.88 21.6994 26.6562 21.6994ZM1.34366 8.20888H4.71867C4.83056 8.20888 4.93787 8.15812 5.01698 8.06776C5.0961 7.97741 5.14055 7.85486 5.14055 7.72708V6.76347C5.14055 6.63568 5.0961 6.51313 5.01698 6.42278C4.93787 6.33242 4.83056 6.28166 4.71867 6.28166H3.87492V0.981805C3.87492 0.854022 3.83047 0.731473 3.75135 0.641118C3.67224 0.550762 3.56493 0.5 3.45304 0.5H2.18741C2.10927 0.500182 2.03271 0.525143 1.96627 0.572103C1.89982 0.619062 1.8461 0.686174 1.8111 0.765956L1.38922 1.72957C1.35702 1.80295 1.34177 1.88451 1.34492 1.96651C1.34807 2.04851 1.36951 2.12823 1.4072 2.19812C1.4449 2.268 1.4976 2.32573 1.56031 2.36583C1.62302 2.40592 1.69367 2.42705 1.76554 2.42722H2.18741V6.28166H1.34366C1.23177 6.28166 1.12446 6.33242 1.04535 6.42278C0.96623 6.51313 0.921783 6.63568 0.921783 6.76347V7.72708C0.921783 7.85486 0.96623 7.97741 1.04535 8.06776C1.12446 8.15812 1.23177 8.20888 1.34366 8.20888ZM1.13778 17.845H4.71867C4.83056 17.845 4.93787 17.7942 5.01698 17.7039C5.0961 17.6135 5.14055 17.491 5.14055 17.3632V16.3996C5.14055 16.2718 5.0961 16.1492 5.01698 16.0589C4.93787 15.9685 4.83056 15.9178 4.71867 15.9178H2.67848C2.85229 15.2982 5.22745 14.7932 5.22745 12.5181C5.22201 12.1815 5.15559 11.8499 5.0324 11.544C4.9092 11.2381 4.73189 10.9647 4.51162 10.7409C4.29136 10.5172 4.03292 10.3479 3.75257 10.2438C3.47222 10.1397 3.17604 10.1031 2.88266 10.1361C2.47451 10.1164 2.06817 10.2087 1.69765 10.4052C1.32713 10.6016 1.00322 10.8966 0.753032 11.2655C0.69992 11.3331 0.661057 11.4137 0.639418 11.5011C0.617779 11.5885 0.613938 11.6804 0.628189 11.7698C0.642439 11.8592 0.674403 11.9436 0.721634 12.0167C0.768866 12.0898 0.830113 12.1496 0.900689 12.1915L1.35294 12.6058C1.6491 12.8805 1.93344 12.7542 2.2026 12.4584C2.33573 12.3094 2.51488 12.2263 2.70126 12.2271C2.7646 12.2205 2.82844 12.2294 2.88856 12.2531C2.94868 12.2768 3.0037 12.3149 3.04997 12.3647C3.09624 12.4146 3.13271 12.4751 3.15696 12.5422C3.18121 12.6094 3.19269 12.6816 3.19063 12.7542C3.19063 13.5251 0.502438 14.0696 0.502438 16.917V17.1579C0.498482 17.2527 0.512487 17.3473 0.543494 17.4353C0.574502 17.5233 0.621781 17.6027 0.682102 17.6679C0.742423 17.7331 0.814363 17.7827 0.893007 17.8133C0.971651 17.8438 1.05515 17.8547 1.13778 17.845Z" fill="white"/>
</svg>
