<svg width="28" height="27" viewBox="0 0 28 27" fill="none" xmlns="http://www.w3.org/2000/svg">
<path d="M27.5 3.87436H0.5V0.5H27.5V3.87436ZM17.3754 10.6231H0.5V7.24872H17.3754V10.6231ZM27.5 17.4445H0.5V14.0702H27.5V17.4445Z" fill="white"/>
<path d="M2.18744 26.823C3.11938 26.823 3.87487 26.0676 3.87487 25.1358C3.87487 24.204 3.11938 23.4486 2.18744 23.4486C1.25549 23.4486 0.5 24.204 0.5 25.1358C0.5 26.0676 1.25549 26.823 2.18744 26.823Z" fill="white"/>
<path d="M10.2538 25.1317C10.2542 25.4659 10.1555 25.7928 9.97004 26.0709C9.7846 26.3489 9.52082 26.5658 9.21208 26.6939C8.90334 26.8221 8.56353 26.8557 8.23563 26.7907C7.90774 26.7257 7.60652 26.5648 7.37007 26.3286C7.13363 26.0923 6.9726 25.7912 6.90736 25.4634C6.84212 25.1356 6.8756 24.7959 7.00357 24.4871C7.13154 24.1783 7.34825 23.9144 7.62626 23.7289C7.90428 23.5433 8.2311 23.4443 8.56538 23.4445C9.01346 23.4445 9.44319 23.6225 9.76003 23.9393C10.0769 24.2561 10.2549 24.6857 10.2549 25.1338L10.2538 25.1317Z" fill="white"/>
<path d="M14.9423 26.823C15.8742 26.823 16.6297 26.0676 16.6297 25.1358C16.6297 24.204 15.8742 23.4486 14.9423 23.4486C14.0104 23.4486 13.2549 24.204 13.2549 25.1358C13.2549 26.0676 14.0104 26.823 14.9423 26.823Z" fill="white"/>
</svg>
