<svg width="10" height="13" viewBox="0 0 10 13" fill="none" xmlns="http://www.w3.org/2000/svg">
<path d="M5.00018 5.44915C5.2592 5.45828 5.51528 5.39631 5.73554 5.2712C5.95579 5.14609 6.13017 4.96356 6.23628 4.74705C6.34238 4.53053 6.37537 4.28992 6.331 4.05612C6.28663 3.82231 6.16692 3.60599 5.98727 3.43493C5.80761 3.26387 5.5762 3.14589 5.32276 3.09613C5.06931 3.04637 4.80541 3.06712 4.56494 3.1557C4.32447 3.24427 4.11841 3.39664 3.97323 3.59324C3.82805 3.78983 3.75038 4.02166 3.75018 4.25897C3.74376 4.5685 3.87179 4.86771 4.10617 5.09088C4.34055 5.31404 4.6621 5.4429 5.00018 5.44915ZM4.55618 9.56899C4.61306 9.62465 4.68182 9.66903 4.75819 9.69936C4.83457 9.7297 4.91693 9.74535 5.00018 9.74535C5.08344 9.74535 5.1658 9.7297 5.24218 9.69936C5.31855 9.66903 5.38731 9.62465 5.44418 9.56899L8.00018 7.12272C8.7987 6.34989 9.24365 5.32645 9.24365 4.26263C9.24365 3.19882 8.7987 2.17538 8.00018 1.40255C7.61444 1.02872 7.1494 0.73092 6.63355 0.527387C6.1177 0.323854 5.5619 0.218872 5.00018 0.218872C4.43847 0.218872 3.88266 0.323854 3.36681 0.527387C2.85096 0.73092 2.38593 1.02872 2.00018 1.40255C1.20167 2.17538 0.75672 3.19882 0.75672 4.26263C0.75672 5.32645 1.20167 6.34989 2.00018 7.12272L4.55618 9.56899ZM2.01918 3.98432C2.05878 3.56418 2.19848 3.1571 2.42843 2.79171C2.65839 2.42633 2.97302 2.11153 3.35018 1.86946C3.83545 1.56333 4.41087 1.39941 5.00018 1.39941C5.5895 1.39941 6.16491 1.56333 6.65018 1.86946C7.02547 2.11101 7.33876 2.42451 7.56827 2.78816C7.79779 3.15181 7.93801 3.55687 7.97918 3.97516C8.02518 4.39454 7.97219 4.81807 7.82381 5.21706C7.67544 5.61606 7.43513 5.9812 7.11918 6.28777L5.00018 8.30191L2.88118 6.28319C2.56479 5.97964 2.32385 5.61702 2.17488 5.22022C2.02592 4.82342 1.97347 4.40181 2.01918 3.98432ZM9.37519 10.9295H0.625185C0.459028 10.9379 0.302711 11.0043 0.188347 11.1149C0.0739822 11.2256 0.0102539 11.3722 0.0102539 11.5245C0.0102539 11.6769 0.0739822 11.8235 0.188347 11.9341C0.302711 12.0448 0.459028 12.1112 0.625185 12.1196H9.37519C9.54134 12.1112 9.69766 12.0448 9.81202 11.9341C9.92639 11.8235 9.99011 11.6769 9.99011 11.5245C9.99011 11.3722 9.92639 11.2256 9.81202 11.1149C9.69766 11.0043 9.54134 10.9379 9.37519 10.9295Z" fill="#204F38"/>
</svg>
