<svg width="25" height="23" viewBox="0 0 25 23" fill="none" xmlns="http://www.w3.org/2000/svg">
<path d="M20.6298 10.3541C20.6298 12.0702 20.074 13.7476 19.0326 15.1745C17.9913 16.6013 16.5112 17.7134 14.7795 18.3701C13.0478 19.0268 11.1423 19.1986 9.30391 18.8638C7.46556 18.529 5.77692 17.7027 4.45153 16.4893C3.12615 15.2758 2.22356 13.7299 1.85788 12.0468C1.49221 10.3637 1.67989 8.61922 2.39718 7.03381C3.11447 5.44841 4.32916 4.09334 5.88765 3.13997C7.44613 2.1866 9.27841 1.67773 11.1528 1.67773C13.6662 1.67773 16.0768 2.59185 17.854 4.21899C19.6313 5.84613 20.6298 8.053 20.6298 10.3541Z" stroke="black" stroke-width="3" stroke-linecap="round" stroke-linejoin="round"/>
<path d="M22.9987 21.1994L17.8457 16.4817" stroke="black" stroke-width="3" stroke-linecap="round" stroke-linejoin="round"/>
</svg>
