<svg width="22" height="24" viewBox="0 0 22 24" fill="none" xmlns="http://www.w3.org/2000/svg">
<path d="M20.489 7.97539C20.2334 7.6828 20.0249 7.35815 19.87 7.01135C19.7667 6.632 19.7229 6.24112 19.74 5.85047C19.8062 5.20833 19.6525 4.56325 19.3 4.00478C18.824 3.52183 18.1944 3.18784 17.5 3.04989C17.0936 2.94505 16.7054 2.78817 16.347 2.58389C16.0283 2.33924 15.7506 2.05297 15.523 1.73429C15.161 1.16839 14.6149 0.720249 13.961 0.452558C13.2811 0.322709 12.5741 0.386609 11.935 0.635663C11.5275 0.773426 11.1004 0.856679 10.667 0.882853C10.2342 0.858359 9.80748 0.776959 9.4 0.641156C8.76214 0.387865 8.05365 0.323833 7.374 0.458051C6.71906 0.724273 6.17248 1.17278 5.812 1.73978C5.58151 2.05646 5.30421 2.34238 4.988 2.58938C4.63004 2.7945 4.24174 2.95144 3.835 3.05538C3.14188 3.19631 2.51322 3.52981 2.035 4.01027C1.68549 4.56768 1.5335 5.21064 1.6 5.85047C1.61646 6.2411 1.57269 6.6319 1.47 7.01135C1.31592 7.35852 1.1074 7.68329 0.850998 7.97539C0.370418 8.47115 0.072658 9.09292 0 9.75242C0.0743184 10.4109 0.373095 11.0314 0.854 11.5258C1.10964 11.8184 1.3181 12.143 1.473 12.4898C1.57628 12.8692 1.62005 13.2601 1.603 13.6507C1.53645 14.2927 1.68988 14.9378 2.042 15.4964C2.51803 15.9793 3.14761 16.3133 3.842 16.4513C4.24839 16.5561 4.63656 16.713 4.995 16.9173C5.31371 17.1619 5.59136 17.4482 5.819 17.7669C5.994 17.982 6.168 18.1963 6.363 18.3931V22.4644C6.36286 22.6843 6.42579 22.9005 6.54551 23.0911C6.66522 23.2818 6.83751 23.4403 7.04516 23.5509C7.25281 23.6615 7.48853 23.7202 7.72875 23.7212C7.96897 23.7222 8.20526 23.6655 8.414 23.5566L10.371 22.5377C10.4652 22.4883 10.5719 22.4623 10.6805 22.4623C10.7891 22.4623 10.8958 22.4883 10.99 22.5377L12.947 23.5566C13.1541 23.6642 13.3879 23.721 13.626 23.7214C13.9902 23.719 14.3386 23.5852 14.5957 23.349C14.8528 23.1128 14.9977 22.7933 14.999 22.4598V18.3849C15.194 18.188 15.368 17.9738 15.543 17.7586C15.7735 17.442 16.0508 17.156 16.367 16.909C16.725 16.7039 17.1133 16.547 17.52 16.443C18.2131 16.3021 18.8418 15.9686 19.32 15.4882C19.6721 14.9296 19.8256 14.2845 19.759 13.6425C19.7426 13.2518 19.7863 12.861 19.889 12.4816C20.0431 12.1344 20.2516 11.8097 20.508 11.5175C20.9889 11.0231 21.2877 10.4027 21.362 9.74418C21.2787 9.08765 20.9775 8.47029 20.499 7.97539H20.489ZM14.24 22.4617C14.2397 22.5616 14.2109 22.6598 14.1564 22.7464C14.1019 22.833 14.0236 22.905 13.9293 22.9554C13.835 23.0057 13.728 23.0326 13.6188 23.0334C13.5096 23.0341 13.4021 23.0087 13.307 22.9597L11.35 21.9407C11.1431 21.8329 10.9091 21.7761 10.671 21.7761C10.4329 21.7761 10.1989 21.8329 9.992 21.9407L8.035 22.9597C7.93986 23.0087 7.83237 23.0341 7.72321 23.0334C7.61404 23.0326 7.50699 23.0057 7.41268 22.9554C7.31837 22.905 7.24008 22.833 7.18559 22.7464C7.13109 22.6598 7.10227 22.5616 7.102 22.4617V18.9424C7.18932 18.983 7.27952 19.0182 7.372 19.0477C7.56383 19.1044 7.76444 19.1322 7.966 19.1301C8.45675 19.1049 8.94085 19.0142 9.403 18.8609C9.81049 18.7232 10.2376 18.6399 10.671 18.6137C11.1044 18.6399 11.5315 18.7232 11.939 18.8609C12.5769 19.1142 13.2854 19.1783 13.965 19.044C14.0583 19.0165 14.1487 18.9812 14.235 18.9388V22.4571L14.24 22.4617ZM19.88 11.1257C19.5783 11.4726 19.3359 11.8594 19.161 12.2728C19.0332 12.7167 18.9776 13.1755 18.996 13.6342C19.0529 14.1344 18.9508 14.6389 18.702 15.0872C18.3104 15.4471 17.8128 15.6949 17.27 15.8003C16.7917 15.9248 16.3359 16.1127 15.917 16.3579C15.5364 16.6427 15.205 16.9785 14.934 17.354C14.654 17.7979 14.2397 18.1582 13.741 18.3913C13.206 18.4642 12.6595 18.3976 12.164 18.199C11.6842 18.0404 11.1814 17.9479 10.672 17.9244C10.1626 17.9483 9.6599 18.0409 9.18 18.199C8.68529 18.4 8.13793 18.4668 7.603 18.3913C7.10335 18.1594 6.68867 17.7989 6.41 17.354C6.13606 16.9806 5.80501 16.6452 5.427 16.3579C5.00858 16.1118 4.55262 15.924 4.074 15.8003C3.53124 15.694 3.03362 15.4463 2.641 15.0872C2.39218 14.6389 2.29009 14.1344 2.347 13.6342C2.3654 13.1755 2.3098 12.7167 2.182 12.2728C2.00626 11.8597 1.7639 11.4731 1.463 11.1257C1.08058 10.7409 0.832017 10.2606 0.749001 9.74601C0.833006 9.23166 1.08144 8.7516 1.463 8.36632C1.76467 8.01944 2.0071 7.63265 2.182 7.21917C2.3098 6.77527 2.3654 6.31654 2.347 5.85779C2.29009 5.35767 2.39218 4.85314 2.641 4.40486C3.03286 4.04474 3.5308 3.79692 4.074 3.69167C4.55227 3.5672 5.0081 3.37936 5.427 3.13412C5.80757 2.84929 6.13898 2.51347 6.41 2.13803C6.68945 1.69515 7.10267 1.33558 7.6 1.10258C7.71628 1.06961 7.83727 1.05264 7.959 1.05222C8.37381 1.08027 8.7822 1.16195 9.172 1.29484C9.65177 1.45341 10.1546 1.54597 10.664 1.56949C11.1734 1.54552 11.6761 1.45297 12.156 1.29484C12.6507 1.09376 13.1981 1.02703 13.733 1.10258C14.2326 1.33443 14.6473 1.69499 14.926 2.13986C15.1999 2.51323 15.531 2.84867 15.909 3.13595C16.3274 3.382 16.7834 3.56989 17.262 3.6935C17.8048 3.79984 18.3024 4.04751 18.695 4.40669C18.9438 4.85498 19.0459 5.3595 18.989 5.85962C18.9706 6.31838 19.0262 6.7771 19.154 7.221C19.3297 7.63411 19.5721 8.02079 19.873 8.36815C20.2554 8.7529 20.504 9.23322 20.587 9.74784C20.5084 10.2619 20.262 10.7422 19.88 11.1257ZM10.671 2.62875C9.13331 2.62893 7.63019 3.0465 6.35168 3.82866C5.07316 4.61083 4.07665 5.72247 3.48811 7.02306C2.89957 8.32365 2.74542 9.7548 3.04517 11.1356C3.34492 12.5164 4.08509 13.7848 5.17213 14.7805C6.25916 15.7762 7.64424 16.4545 9.15228 16.7296C10.6603 17.0048 12.2236 16.8644 13.6445 16.3262C15.0654 15.7881 16.2802 14.8763 17.1351 13.7062C17.9901 12.5361 18.447 11.1602 18.448 9.75242C18.4467 7.86411 17.627 6.05344 16.1689 4.71786C14.7109 3.38228 12.7335 2.63093 10.671 2.62875ZM10.671 16.1785C9.28065 16.1783 7.9216 15.8005 6.76579 15.0931C5.60998 14.3856 4.70934 13.3801 4.17783 12.2039C3.64632 11.0277 3.50781 9.73361 3.77983 8.48532C4.05185 7.23703 4.72217 6.09065 5.706 5.19122C6.68982 4.29179 7.94293 3.67972 9.3068 3.43246C10.6707 3.1852 12.084 3.31385 13.368 3.80213C14.652 4.29042 15.7489 5.1164 16.52 6.17558C17.2911 7.23475 17.7018 8.47953 17.7 9.75242C17.6963 11.4577 16.9544 13.092 15.6369 14.2974C14.3193 15.5028 12.5336 16.1809 10.671 16.183V16.1785ZM13.187 6.96557L7.926 11.7775C7.85656 11.8421 7.81764 11.9291 7.81764 12.0197C7.81764 12.1103 7.85656 12.1973 7.926 12.2619C7.96073 12.2937 8.00196 12.3189 8.04735 12.3361C8.09273 12.3533 8.14137 12.3622 8.1905 12.3622C8.23962 12.3622 8.28827 12.3533 8.33365 12.3361C8.37903 12.3189 8.42027 12.2937 8.455 12.2619L13.716 7.44988C13.7507 7.41808 13.7783 7.38033 13.7971 7.33878C13.8159 7.29723 13.8256 7.2527 13.8256 7.20773C13.8256 7.16276 13.8159 7.11822 13.7971 7.07667C13.7783 7.03513 13.7507 6.99737 13.716 6.96557C13.6813 6.93377 13.64 6.90855 13.5946 6.89134C13.5493 6.87413 13.5006 6.86527 13.4515 6.86527C13.4024 6.86527 13.3537 6.87413 13.3084 6.89134C13.263 6.90855 13.2217 6.93377 13.187 6.96557ZM11.4 10.4116C11.2674 10.5325 11.1625 10.6764 11.0915 10.8348C11.0204 10.9933 10.9845 11.1631 10.986 11.3344C10.9853 11.6801 11.1342 12.0119 11.4 12.2573C11.532 12.3786 11.6892 12.4747 11.8623 12.5398C12.0354 12.6048 12.2209 12.6377 12.408 12.6363C12.7855 12.6369 13.1479 12.5006 13.416 12.2573C13.5486 12.1364 13.6535 11.9925 13.7245 11.834C13.7956 11.6756 13.8315 11.5057 13.83 11.3344C13.8305 11.0765 13.7474 10.8242 13.5911 10.6095C13.4348 10.3949 13.2125 10.2276 12.9522 10.1287C12.692 10.0299 12.4055 10.004 12.1292 10.0544C11.8529 10.1047 11.5991 10.229 11.4 10.4116ZM12.878 11.7666C12.8164 11.8245 12.7427 11.8706 12.6613 11.9021C12.5798 11.9335 12.4924 11.9497 12.404 11.9497C12.3156 11.9501 12.228 11.9341 12.1465 11.9027C12.065 11.8712 11.9913 11.8249 11.93 11.7666C11.804 11.6514 11.7322 11.4956 11.73 11.3326C11.7295 11.2516 11.747 11.1714 11.7814 11.0968C11.8157 11.0222 11.8663 10.9548 11.93 10.8986C12.0563 10.7846 12.2266 10.7206 12.404 10.7206C12.5814 10.7206 12.7517 10.7846 12.878 10.8986C12.9413 10.9551 12.9917 11.0225 13.026 11.0971C13.0604 11.1716 13.078 11.2517 13.078 11.3326C13.0785 11.4136 13.061 11.4938 13.0266 11.5684C12.9923 11.643 12.9417 11.7104 12.878 11.7666ZM8.94 9.46769C9.31734 9.46751 9.67944 9.33135 9.948 9.08867C10.0806 8.96777 10.1855 8.82388 10.2565 8.66543C10.3276 8.50697 10.3635 8.33712 10.362 8.16582C10.3627 7.8202 10.2138 7.4884 9.948 7.24298C9.81595 7.12161 9.65879 7.02558 9.48571 6.96049C9.31263 6.89541 9.1271 6.86259 8.94 6.86395C8.56926 6.87295 8.217 7.01411 7.95826 7.25736C7.69951 7.50061 7.55472 7.82674 7.55472 8.16628C7.55472 8.50582 7.69951 8.83194 7.95826 9.0752C8.217 9.31845 8.56926 9.45961 8.94 9.46861V9.46769ZM8.466 7.7282C8.52763 7.67022 8.60133 7.62415 8.68274 7.5927C8.76416 7.56125 8.85163 7.54506 8.94 7.5451C9.02843 7.54464 9.11605 7.56064 9.19753 7.59211C9.279 7.62359 9.35265 7.66989 9.414 7.7282C9.47733 7.78462 9.52766 7.8521 9.56201 7.92663C9.59636 8.00117 9.61404 8.08126 9.614 8.16216C9.6145 8.24312 9.59702 8.32333 9.56264 8.39793C9.52827 8.47252 9.47769 8.53995 9.414 8.59611C9.35237 8.65409 9.27867 8.70017 9.19725 8.73162C9.11584 8.76307 9.02836 8.77925 8.94 8.77922C8.85156 8.77967 8.76395 8.76368 8.68247 8.7322C8.60099 8.70073 8.52735 8.65443 8.466 8.59611C8.40332 8.53947 8.35353 8.47201 8.31952 8.39763C8.28551 8.32325 8.26795 8.24344 8.26785 8.16281C8.26776 8.08217 8.28513 8.00233 8.31897 7.92788C8.35281 7.85344 8.40245 7.78588 8.465 7.72912L8.466 7.7282Z" fill="#E82828"/>
</svg>
